<svg id="wave" style="transform:rotate(180deg); transition: 0.3s" viewBox="0 0 1440 490" version="1.1" xmlns="http://www.w3.org/2000/svg"><defs><linearGradient id="sw-gradient-0" x1="0" x2="0" y1="1" y2="0"><stop stop-color="rgba(46, 184, 114, 1)" offset="0%"></stop><stop stop-color="rgba(255, 255, 255, 1)" offset="100%"></stop></linearGradient></defs><path style="transform:translate(0, 0px); opacity:1" fill="url(#sw-gradient-0)" d="M0,392L26.7,383.8C53.3,376,107,359,160,334.8C213.3,310,267,278,320,269.5C373.3,261,427,278,480,245C533.3,212,587,131,640,114.3C693.3,98,747,147,800,196C853.3,245,907,294,960,277.7C1013.3,261,1067,180,1120,122.5C1173.3,65,1227,33,1280,40.8C1333.3,49,1387,98,1440,163.3C1493.3,229,1547,310,1600,334.8C1653.3,359,1707,327,1760,294C1813.3,261,1867,229,1920,204.2C1973.3,180,2027,163,2080,130.7C2133.3,98,2187,49,2240,24.5C2293.3,0,2347,0,2400,40.8C2453.3,82,2507,163,2560,163.3C2613.3,163,2667,82,2720,89.8C2773.3,98,2827,196,2880,253.2C2933.3,310,2987,327,3040,302.2C3093.3,278,3147,212,3200,187.8C3253.3,163,3307,180,3360,187.8C3413.3,196,3467,196,3520,228.7C3573.3,261,3627,327,3680,294C3733.3,261,3787,131,3813,65.3L3840,0L3840,490L3813.3,490C3786.7,490,3733,490,3680,490C3626.7,490,3573,490,3520,490C3466.7,490,3413,490,3360,490C3306.7,490,3253,490,3200,490C3146.7,490,3093,490,3040,490C2986.7,490,2933,490,2880,490C2826.7,490,2773,490,2720,490C2666.7,490,2613,490,2560,490C2506.7,490,2453,490,2400,490C2346.7,490,2293,490,2240,490C2186.7,490,2133,490,2080,490C2026.7,490,1973,490,1920,490C1866.7,490,1813,490,1760,490C1706.7,490,1653,490,1600,490C1546.7,490,1493,490,1440,490C1386.7,490,1333,490,1280,490C1226.7,490,1173,490,1120,490C1066.7,490,1013,490,960,490C906.7,490,853,490,800,490C746.7,490,693,490,640,490C586.7,490,533,490,480,490C426.7,490,373,490,320,490C266.7,490,213,490,160,490C106.7,490,53,490,27,490L0,490Z"></path></svg>