<svg width="16" height="16" viewBox="0 0 16 16" fill="none" xmlns="http://www.w3.org/2000/svg">
<g clip-path="url(#clip0_445_5580)">
<path d="M8.7539 0.985355C8.7539 0.575196 8.41211 0.226562 8.00195 0.226562C7.59179 0.226562 7.25 0.575196 7.25 0.985355V3.07714C7.25 3.48046 7.59179 3.8291 8.00195 3.8291C8.41211 3.8291 8.7539 3.48046 8.7539 3.07714V0.985355ZM3.91406 4.99121C4.20117 5.27832 4.69336 5.28515 4.97363 4.99804C5.26757 4.71093 5.26757 4.21875 4.98047 3.93164L3.53808 2.48242C3.25097 2.19531 2.76562 2.18164 2.47851 2.46875C2.1914 2.75586 2.18457 3.24804 2.47168 3.53515L3.91406 4.99121ZM10.9619 3.97949C10.6816 4.2666 10.6816 4.75879 10.9687 5.04589C11.2558 5.333 11.748 5.32617 12.0351 5.03906L13.4844 3.58984C13.7715 3.30273 13.7715 2.81054 13.4775 2.5166C13.1972 2.23632 12.7051 2.23632 12.4179 2.52343L10.9619 3.97949ZM15.0224 8.75097C15.4326 8.75097 15.7812 8.40918 15.7812 7.99902C15.7812 7.58886 15.4326 7.24707 15.0224 7.24707H12.9375C12.5273 7.24707 12.1787 7.58886 12.1787 7.99902C12.1787 8.40918 12.5273 8.75097 12.9375 8.75097H15.0224ZM0.974609 7.24707C0.564453 7.24707 0.222656 7.58886 0.222656 7.99902C0.222656 8.40918 0.564453 8.75097 0.974609 8.75097H3.07324C3.4834 8.75097 3.83203 8.40918 3.83203 7.99902C3.83203 7.58886 3.4834 7.24707 3.07324 7.24707H0.974609ZM12.0351 10.9521C11.748 10.6719 11.2558 10.6719 10.9619 10.959C10.6816 11.2461 10.6816 11.7383 10.9687 12.0254L12.4248 13.4746C12.7119 13.7617 13.2041 13.7549 13.4912 13.4678C13.7783 13.1875 13.7715 12.6885 13.4844 12.4014L12.0351 10.9521ZM2.51953 12.4014C2.22558 12.6885 2.22558 13.1807 2.50586 13.4678C2.79297 13.7549 3.28515 13.7617 3.57226 13.4746L5.02148 12.0322C5.31543 11.7451 5.31543 11.2529 5.03515 10.9658C4.74804 10.6787 4.25586 10.6719 3.96875 10.959L2.51953 12.4014ZM8.7539 12.9277C8.7539 12.5176 8.41211 12.1689 8.00195 12.1689C7.59179 12.1689 7.25 12.5176 7.25 12.9277V15.0195C7.25 15.4228 7.59179 15.7715 8.00195 15.7715C8.41211 15.7715 8.7539 15.4228 8.7539 15.0195V12.9277Z" fill="#37352F" fill-opacity="0.45"/>
</g>
<defs>
<clipPath id="clip0_445_5580">
<rect width="16" height="16" fill="white"/>
</clipPath>
</defs>
</svg>
