<svg width="24" height="24" viewBox="0 0 24 24" fill="none" xmlns="http://www.w3.org/2000/svg">
<rect width="24" height="24" rx="8" fill="#3A4A40"/>
<path d="M10.668 13.334C10.5546 13.334 10.4413 13.3073 10.3413 13.2473C10.1346 13.1273 10.0013 12.9073 10.0013 12.6673V8.6673C10.0013 8.4273 10.128 8.2073 10.3413 8.0873C10.548 7.9673 10.808 7.97398 11.0146 8.09398L14.348 10.094C14.548 10.214 14.6746 10.434 14.6746 10.6673C14.6746 10.9006 14.5546 11.1206 14.348 11.2406L11.0146 13.2406C10.908 13.3073 10.788 13.334 10.6746 13.334H10.668ZM11.3346 9.84731V11.494L12.708 10.674L11.3346 9.85399V9.84731Z" fill="white"/>
<path d="M17.3346 16.0007H6.66797C5.56797 16.0007 4.66797 15.1007 4.66797 14.0007V7.33398C4.66797 6.23398 5.56797 5.33398 6.66797 5.33398H17.3346C18.4346 5.33398 19.3346 6.23398 19.3346 7.33398V14.0007C19.3346 15.1007 18.4346 16.0007 17.3346 16.0007ZM6.66797 6.66732C6.3013 6.66732 6.0013 6.96732 6.0013 7.33398V14.0007C6.0013 14.3673 6.3013 14.6673 6.66797 14.6673H17.3346C17.7013 14.6673 18.0013 14.3673 18.0013 14.0007V7.33398C18.0013 6.96732 17.7013 6.66732 17.3346 6.66732H6.66797Z" fill="white"/>
<path d="M14.668 18.6673H9.33464C8.96797 18.6673 8.66797 18.3673 8.66797 18.0007C8.66797 17.634 8.96797 17.334 9.33464 17.334H11.3346V15.334C11.3346 14.9673 11.6346 14.6673 12.0013 14.6673C12.368 14.6673 12.668 14.9673 12.668 15.334V17.334H14.668C15.0346 17.334 15.3346 17.634 15.3346 18.0007C15.3346 18.3673 15.0346 18.6673 14.668 18.6673Z" fill="white"/>
</svg>
