<svg width="16" height="16" viewBox="0 0 16 16" fill="none" xmlns="http://www.w3.org/2000/svg">
<g clip-path="url(#clip0_445_5574)">
<path d="M7.99902 15.0606C11.8613 15.0606 15.0605 11.8682 15.0605 7.99902C15.0605 4.13672 11.8613 0.9375 7.99218 0.9375C4.12988 0.9375 0.9375 4.13672 0.9375 7.99902C0.9375 11.8682 4.13672 15.0606 7.99902 15.0606ZM7.99902 13.6729C4.85449 13.6729 2.33203 11.1436 2.33203 7.99902C2.33203 4.85449 4.84765 2.33203 7.99218 2.33203C11.1367 2.33203 13.6728 4.85449 13.6728 7.99902C13.6728 11.1436 11.1435 13.6729 7.99902 13.6729ZM7.62304 10.5694C7.79394 10.8496 8.2041 10.8633 8.375 10.5694L10.665 6.66602C10.8564 6.34473 10.6992 5.97559 10.3642 5.97559H5.62695C5.29199 5.97559 5.14843 6.36523 5.31933 6.66602L7.62304 10.5694Z" fill="#37352F" fill-opacity="0.45"/>
</g>
<defs>
<clipPath id="clip0_445_5574">
<rect width="16" height="16" fill="white"/>
</clipPath>
</defs>
</svg>
