<svg width="16" height="16" viewBox="0 0 16 16" fill="none" xmlns="http://www.w3.org/2000/svg">
<path d="M1.56836 3.24512H14.4268C14.7686 3.24512 15.0489 2.96485 15.0489 2.62305C15.0489 2.28125 14.7754 2.00781 14.4268 2.00781H1.56836C1.21973 2.00781 0.953125 2.28125 0.953125 2.62305C0.953125 2.96485 1.22657 3.24512 1.56836 3.24512ZM1.56836 6.82715H14.4268C14.7686 6.82715 15.0489 6.54688 15.0489 6.20508C15.0489 5.86328 14.7754 5.58985 14.4268 5.58985H1.56836C1.21973 5.58985 0.953125 5.86328 0.953125 6.20508C0.953125 6.54688 1.22657 6.82715 1.56836 6.82715ZM1.56836 10.4092H14.4268C14.7686 10.4092 15.0489 10.1289 15.0489 9.78711C15.0489 9.44531 14.7754 9.17188 14.4268 9.17188H1.56836C1.21973 9.17188 0.953125 9.44531 0.953125 9.78711C0.953125 10.1289 1.22657 10.4092 1.56836 10.4092ZM1.56836 13.9912H8.75977C9.10157 13.9912 9.38184 13.7109 9.38184 13.3691C9.38184 13.0273 9.1084 12.7539 8.75977 12.7539H1.56836C1.21973 12.7539 0.953125 13.0273 0.953125 13.3691C0.953125 13.7109 1.22657 13.9912 1.56836 13.9912Z" fill="#37352F" fill-opacity="0.45"/>
</svg>
